<svg xmlns="http://www.w3.org/2000/svg" width="1024" height="1024" viewBox="0 0 1024 1024">
<g>
<path d="M 1017.50 686.40 C1020.25,688.38 1022.83,690.00 1023.25,690.00 C1023.66,690.00 1024.00,534.75 1024.00,345.00 L 1024.00 810.37 L 1010.25 799.32 C926.00,731.57 830.49,680.70 727.50,648.70 C644.22,622.82 570.13,609.74 467.50,602.79 C438.21,600.80 339.09,601.14 308.00,603.32 C220.84,609.46 166.72,616.34 78.00,632.58 C54.92,636.80 14.27,645.29 3.75,648.08 L 0.00 649.08 L 0.00 551.26 L 3.75 550.70 C5.81,550.39 18.52,547.88 32.00,545.11 C57.37,539.90 96.54,532.75 120.00,529.03 C127.43,527.86 137.55,526.25 142.50,525.45 C169.02,521.18 243.00,512.86 279.50,510.04 C328.42,506.26 409.17,504.87 455.00,507.01 C554.69,511.67 643.68,525.47 726.50,549.12 C811.38,573.35 888.35,606.40 960.84,649.74 C977.18,659.50 1006.41,678.42 1017.50,686.40 Z" fill="rgb(65,92,184)"/>
<path d="M 1023.57 656.19 C1023.12,653.61 1022.18,653.67 1020.24,653.93 C1019.55,654.02 1018.55,652.95 1018.02,651.55 C1017.49,650.15 1016.63,649.00 1016.12,649.00 C1015.61,649.00 1015.38,648.21 1015.61,647.25 C1016.37,644.07 1014.42,642.65 1009.16,642.57 C1004.51,642.51 1004.11,642.30 1003.60,639.73 C1003.03,636.91 1002.65,636.64 997.74,635.56 C995.33,635.03 995.06,634.61 995.63,632.32 C996.55,628.67 994.15,627.12 988.58,627.74 C984.77,628.17 984.00,627.93 982.62,625.82 C981.16,623.60 976.73,621.14 971.36,619.56 C970.18,619.22 968.66,617.60 967.99,615.97 C966.77,613.04 965.48,612.54 960.25,612.96 C958.76,613.08 958.00,612.59 958.00,611.50 C958.00,608.97 955.19,606.73 951.68,606.47 C949.93,606.33 948.50,606.14 948.50,606.04 C948.50,605.93 947.68,605.69 946.67,605.50 C943.35,604.87 941.87,604.03 942.44,603.10 C943.45,601.46 941.82,598.96 938.68,597.33 C936.98,596.46 934.98,595.12 934.23,594.37 C933.47,593.62 932.18,593.00 931.36,593.00 C930.54,593.00 928.89,592.45 927.68,591.77 C926.48,591.10 924.15,590.53 922.50,590.52 C920.39,590.51 919.50,590.01 919.49,588.84 C919.47,587.03 915.98,582.68 915.19,583.48 C914.92,583.75 914.19,583.28 913.57,582.43 C912.68,581.20 911.63,581.07 908.47,581.78 C904.51,582.67 904.50,582.67 904.50,579.59 C904.50,576.67 904.29,576.50 900.50,576.42 C898.30,576.38 895.06,575.99 893.30,575.56 C890.67,574.91 890.06,574.23 889.80,571.66 C889.38,567.32 886.07,565.76 878.75,566.44 C873.50,566.92 873.00,566.80 873.00,564.98 C873.00,563.17 871.32,562.41 868.54,562.95 C868.01,563.06 867.07,562.45 866.45,561.61 C865.83,560.75 863.46,559.95 861.12,559.79 C857.70,559.55 856.99,559.17 857.35,557.79 C857.90,555.66 856.44,554.43 852.32,553.55 C848.21,552.67 846.03,550.26 848.06,548.86 C849.18,548.09 849.05,547.98 847.50,548.38 C841.88,549.82 836.28,549.34 833.21,547.15 C830.97,545.56 828.89,544.98 825.97,545.16 C821.74,545.41 820.05,544.17 820.02,540.81 C819.99,538.45 818.39,537.69 812.55,537.27 C809.77,537.06 806.94,536.84 806.26,536.78 C805.58,536.72 804.77,535.84 804.45,534.83 C804.13,533.83 803.11,532.93 802.18,532.85 C798.42,532.52 797.37,532.35 794.50,531.61 C792.85,531.18 790.83,530.56 790.00,530.22 C789.17,529.88 785.62,529.58 782.11,529.55 C777.23,529.51 775.65,529.14 775.46,528.00 C774.58,522.89 773.02,521.00 769.69,521.00 C767.84,521.00 766.02,521.31 765.64,521.70 C764.33,523.01 761.72,522.86 759.41,521.35 C758.06,520.46 756.23,520.11 755.02,520.49 C753.88,520.85 753.01,520.78 753.09,520.33 C753.50,518.00 752.64,517.16 748.75,516.12 C746.41,515.49 741.80,515.04 738.50,515.12 C734.62,515.21 731.44,514.69 729.50,513.64 C727.85,512.74 725.88,512.01 725.13,512.01 C724.06,512.00 724.02,511.68 724.92,510.60 C725.81,509.52 725.78,509.07 724.79,508.68 C724.08,508.39 724.51,508.12 725.75,508.08 C728.10,508.00 728.75,506.58 726.96,505.47 C726.38,505.12 725.25,505.37 724.45,506.04 C723.52,506.81 721.09,507.07 717.79,506.75 C714.94,506.48 711.30,506.63 709.71,507.08 C706.56,507.99 704.48,507.12 699.93,503.03 C697.39,500.75 696.32,500.54 685.84,500.32 C677.78,500.15 672.98,499.54 669.25,498.21 C666.36,497.17 664.33,496.00 664.74,495.60 C665.14,495.19 664.35,494.00 662.99,492.95 C660.11,490.74 654.57,490.45 648.73,492.20 C644.90,493.35 644.63,493.28 642.48,490.58 C640.60,488.21 639.14,487.62 633.37,486.88 C626.50,485.99 610.99,485.11 595.00,484.71 C586.30,484.50 583.57,483.29 584.76,480.19 C585.50,478.26 583.12,477.03 579.92,477.67 C577.18,478.21 575.58,476.88 575.53,474.02 C575.49,471.88 565.61,470.56 561.92,472.20 C560.39,472.87 559.36,473.78 559.63,474.21 C559.90,474.65 559.42,475.00 558.56,475.00 C557.70,475.00 557.00,474.66 557.00,474.25 C557.00,472.37 537.98,474.18 535.21,476.32 C534.34,476.99 533.56,476.96 532.84,476.24 C531.30,474.70 532.66,473.10 534.98,473.71 C536.08,473.99 538.11,473.94 539.50,473.59 C542.02,472.96 542.03,472.94 540.08,470.86 C538.03,468.65 536.76,468.65 527.00,470.88 C521.12,472.23 509.39,472.28 506.94,470.97 C505.66,470.28 500.97,470.24 492.76,470.84 C484.00,471.49 480.10,471.43 479.10,470.63 C476.83,468.81 436.88,469.28 422.03,471.30 C408.80,473.10 380.51,473.63 379.56,472.10 C379.25,471.60 374.16,470.91 368.25,470.57 C362.34,470.22 355.67,469.71 353.44,469.44 C350.31,469.05 348.85,469.40 347.04,470.97 C344.16,473.46 338.21,473.72 337.32,471.39 C336.82,470.09 335.78,469.90 331.93,470.42 C329.04,470.80 326.90,470.64 326.52,470.02 C325.72,468.74 320.45,468.69 318.11,469.94 C316.06,471.04 307.27,471.31 301.50,470.45 C295.65,469.58 280.86,469.88 279.59,470.89 C278.99,471.36 277.40,472.09 276.05,472.51 C274.70,472.92 272.98,473.87 272.24,474.62 C271.19,475.67 268.86,475.81 261.69,475.24 C248.66,474.19 237.04,474.76 235.77,476.50 C235.29,477.14 235.03,477.10 235.02,476.38 C235.01,475.70 233.26,475.30 230.60,475.38 C228.19,475.44 226.38,475.79 226.60,476.15 C227.09,476.96 224.44,478.00 221.86,478.00 C220.77,478.00 220.16,477.55 220.50,477.00 C222.53,473.72 221.79,472.38 217.82,472.14 C214.55,471.95 213.74,472.27 213.30,473.94 C213.01,475.06 212.42,475.76 211.99,475.49 C211.56,475.23 210.96,475.65 210.67,476.43 C210.33,477.29 209.32,477.63 208.06,477.30 C204.97,476.50 202.77,478.70 204.13,481.24 C205.13,483.10 204.99,483.21 202.51,482.59 C200.14,482.00 196.11,482.75 191.00,484.73 C190.18,485.06 189.05,485.18 188.50,485.02 C185.80,484.22 167.00,484.10 167.00,484.88 C167.00,485.37 161.71,485.73 155.25,485.67 C138.08,485.51 132.78,486.44 129.05,490.26 C126.68,492.69 125.72,493.12 124.79,492.19 C124.14,491.54 122.84,491.00 121.91,491.00 C120.92,491.00 119.95,489.92 119.57,488.42 C118.97,486.02 118.63,485.89 114.89,486.52 C112.67,486.89 109.31,487.20 107.43,487.20 C105.54,487.20 104.00,487.61 104.00,488.10 C104.00,488.60 104.68,489.00 105.50,489.00 C106.33,489.00 107.00,489.89 107.00,491.00 C107.00,492.40 106.33,493.00 104.75,493.01 C100.75,493.04 98.08,494.17 97.47,496.11 C97.14,497.15 96.05,498.00 95.06,498.00 C94.06,498.00 91.50,498.62 89.36,499.37 C86.38,500.42 83.96,500.52 79.12,499.79 C75.01,499.17 72.43,499.17 71.80,499.80 C71.26,500.34 68.88,500.58 66.50,500.33 C64.05,500.08 61.91,500.34 61.54,500.94 C61.18,501.52 59.66,502.00 58.16,502.00 C55.68,502.00 51.30,504.23 49.95,506.18 C48.88,507.72 41.10,507.98 35.90,506.65 C29.92,505.12 23.00,506.21 23.00,508.68 C23.00,509.47 22.58,509.86 22.07,509.54 C21.56,509.23 21.00,509.97 20.82,511.20 C20.56,513.04 19.50,513.62 14.70,514.58 C11.51,515.22 6.89,515.52 4.45,515.24 L 0.00 514.74 L 0.00 0.00 L 1024.00 0.00 L 1024.00 345.00 C1024.00,481.67 1023.82,600.44 1023.57,656.19 ZM 1015.85 816.75 C1015.93,817.44 1017.09,818.00 1018.42,818.00 C1022.69,818.00 1024.00,816.97 1024.00,813.58 C1024.00,810.66 1022.76,809.38 1010.26,799.32 L 1024.00 810.37 L 1024.00 1024.00 L 0.00 1024.00 L 0.00 650.22 C0.32,650.96 2.48,651.41 6.59,651.62 C9.66,651.77 13.65,652.39 15.46,652.99 C18.25,653.91 19.30,653.75 22.30,651.98 C25.12,650.32 26.23,650.12 27.68,651.02 C29.04,651.87 30.25,651.85 32.50,650.96 C34.15,650.30 34.94,649.55 34.25,649.30 C33.56,649.04 33.00,648.42 33.00,647.93 C33.00,647.00 37.81,647.18 39.55,648.18 C40.07,648.48 41.74,649.02 43.25,649.38 C44.76,649.74 46.00,650.66 46.00,651.41 C46.00,653.03 48.25,654.10 49.66,653.16 C51.98,651.60 51.86,649.18 49.43,648.57 C45.77,647.65 46.51,646.00 50.59,646.00 C53.63,646.00 54.34,645.56 55.27,643.09 C56.76,639.14 60.85,638.41 85.50,637.67 C91.55,637.49 97.62,636.85 99.00,636.24 C100.38,635.63 100.85,635.10 100.05,635.06 C98.92,635.01 98.87,634.73 99.80,633.80 C100.73,632.87 101.82,632.89 104.69,633.93 C108.19,635.20 108.48,635.14 110.44,632.75 C112.30,630.49 113.09,630.27 118.50,630.58 C121.80,630.77 125.09,630.94 125.82,630.96 C128.99,631.05 123.48,634.43 120.12,634.46 C116.22,634.50 114.48,637.20 117.59,638.40 C119.92,639.29 123.00,638.17 123.00,636.43 C123.00,635.33 124.59,635.00 130.00,635.00 C134.83,635.00 137.00,634.62 137.00,633.78 C137.00,633.11 137.71,630.70 138.59,628.41 C140.13,624.37 140.33,624.24 145.84,623.54 C148.95,623.15 159.36,622.63 168.96,622.38 C178.87,622.13 186.69,621.51 187.03,620.95 C187.37,620.40 190.31,619.77 193.57,619.54 C196.83,619.30 201.07,618.64 202.99,618.06 C204.91,617.48 207.28,617.00 208.24,617.00 C211.19,617.00 210.20,618.71 206.88,619.37 C204.35,619.88 203.97,620.26 204.91,621.39 C206.82,623.69 209.65,623.87 212.66,621.89 C214.22,620.86 216.18,620.00 217.00,619.98 C217.82,619.97 219.62,619.08 221.00,618.00 C223.98,615.67 228.83,615.39 229.64,617.50 C230.50,619.73 232.62,619.32 235.33,616.40 C238.44,613.05 241.63,613.46 241.19,617.17 C240.91,619.55 241.28,619.87 245.02,620.50 C247.30,620.89 251.08,620.91 253.43,620.56 C257.17,620.00 257.65,619.64 257.29,617.71 C256.97,616.07 257.65,615.04 259.93,613.70 C261.61,612.71 263.46,611.01 264.03,609.94 C264.81,608.49 265.72,608.14 267.54,608.60 C268.89,608.94 270.78,608.87 271.75,608.45 C272.71,608.02 276.88,607.57 281.00,607.43 C285.12,607.29 289.17,607.12 290.00,607.04 C290.83,606.97 294.25,607.21 297.61,607.58 C301.69,608.03 303.95,607.88 304.41,607.15 C304.86,606.42 307.12,606.25 310.95,606.65 C314.17,606.99 318.08,606.83 319.65,606.29 C321.37,605.70 323.69,605.67 325.50,606.20 C329.75,607.45 366.40,607.29 366.83,606.01 C367.27,604.70 372.00,604.69 372.00,606.00 C372.00,607.55 376.96,607.18 378.64,605.50 C380.80,603.35 408.50,603.29 409.71,605.44 C410.23,606.38 412.41,606.93 416.00,607.04 C422.15,607.23 458.25,607.34 461.75,607.18 C462.99,607.13 465.46,607.04 467.25,606.99 C469.04,606.93 473.34,606.37 476.82,605.75 C482.11,604.79 483.28,604.84 484.03,606.04 C484.71,607.15 487.50,607.48 496.37,607.49 C502.68,607.49 508.17,607.84 508.58,608.25 C509.00,608.66 510.55,609.00 512.04,609.00 C514.23,609.00 514.86,609.56 515.33,611.91 C516.01,615.30 518.69,616.21 527.14,615.94 C530.09,615.84 533.78,616.27 535.33,616.89 C536.89,617.51 538.60,617.75 539.14,617.42 C539.67,617.09 542.57,616.60 545.58,616.34 C550.38,615.93 551.43,616.19 554.10,618.43 C555.78,619.85 558.36,621.01 559.83,621.01 C561.30,621.02 563.58,621.32 564.91,621.67 C566.71,622.15 567.11,621.99 566.52,621.04 C565.91,620.05 566.70,619.91 570.12,620.43 C572.53,620.80 580.12,621.26 587.00,621.45 C593.88,621.65 599.50,621.88 599.50,621.97 C599.50,622.58 606.71,623.32 613.17,623.38 C617.39,623.41 620.60,623.83 620.31,624.30 C620.02,624.77 620.78,625.86 621.99,626.71 C623.47,627.74 623.82,628.49 623.06,628.96 C622.44,629.35 621.83,630.98 621.71,632.58 C621.51,635.33 621.74,635.52 625.67,635.80 C629.13,636.06 629.94,635.76 630.48,634.06 C630.84,632.94 630.85,631.56 630.51,631.01 C629.72,629.74 629.98,629.75 633.85,631.10 C635.58,631.70 637.00,632.86 637.00,633.67 C637.00,637.06 641.45,639.15 643.76,636.84 C644.60,636.00 645.27,635.98 646.24,636.78 C647.85,638.12 654.04,638.10 655.74,636.76 C656.42,636.22 657.77,636.13 658.74,636.56 C659.71,636.99 663.93,637.23 668.13,637.08 C672.87,636.91 676.02,637.22 676.44,637.90 C676.81,638.51 678.10,639.01 679.31,639.03 C680.51,639.05 682.29,639.66 683.25,640.39 C685.17,641.85 685.63,645.00 683.93,645.00 C683.34,645.00 683.00,646.01 683.18,647.25 C683.55,649.88 687.01,650.34 691.00,648.29 C694.39,646.56 696.72,646.67 697.82,648.64 C698.66,650.14 698.98,650.13 701.75,648.49 C704.43,646.91 709.30,647.04 707.69,648.64 C706.81,649.52 709.63,652.03 712.23,652.67 C715.16,653.39 721.53,653.46 726.10,652.82 C730.59,652.18 733.02,653.85 733.90,658.17 C734.46,660.92 735.16,661.58 738.29,662.32 C740.33,662.80 742.00,663.59 742.00,664.06 C742.00,666.09 745.68,666.88 748.43,665.45 C751.42,663.90 753.00,664.27 753.00,666.52 C753.00,669.11 756.65,670.19 761.01,668.88 C766.71,667.17 774.52,669.10 780.94,673.81 C786.38,677.80 787.68,680.64 783.60,679.62 C781.91,679.19 781.02,679.50 780.57,680.67 C779.57,683.28 781.74,684.74 783.34,682.54 C784.15,681.44 784.95,681.11 785.33,681.72 C785.72,682.35 787.52,682.45 790.06,681.99 C792.89,681.47 794.29,681.60 794.61,682.42 C794.88,683.14 796.90,683.51 799.81,683.38 C807.38,683.03 811.54,684.24 811.28,686.72 C810.97,689.68 813.34,691.42 815.86,690.07 C817.04,689.44 818.76,689.34 820.09,689.84 C821.85,690.49 822.00,690.79 820.78,691.25 C819.75,691.65 819.41,692.69 819.74,694.42 C820.27,697.21 821.13,697.54 823.95,696.03 C825.35,695.28 826.39,695.63 828.52,697.60 C831.00,699.90 831.77,700.08 836.38,699.44 C846.65,698.01 847.34,698.16 848.25,702.02 C848.71,703.93 849.17,706.84 849.29,708.49 C849.43,710.46 850.11,711.59 851.30,711.82 C853.79,712.30 856.31,710.08 855.04,708.54 C854.30,707.66 854.80,707.46 857.02,707.79 C860.64,708.32 860.88,709.56 857.54,710.40 C855.88,710.82 855.26,711.51 855.64,712.51 C856.47,714.66 858.75,714.34 860.05,711.91 L 861.17 709.81 L 863.49 711.99 C865.05,713.46 866.91,714.11 869.15,713.98 C879.44,713.41 880.74,714.27 879.01,720.46 C877.64,725.36 878.10,726.60 881.50,727.17 C882.60,727.35 883.82,727.95 884.21,728.49 C884.60,729.04 887.79,729.49 891.31,729.49 C898.43,729.50 900.72,730.73 901.19,734.82 C901.49,737.43 901.66,737.49 907.39,737.20 L 913.29 736.91 L 911.67 739.38 C910.07,741.82 910.08,741.84 912.94,741.48 C914.77,741.25 916.64,741.82 918.04,743.04 C919.26,744.09 920.65,744.72 921.13,744.42 C922.64,743.49 928.03,747.31 927.54,748.97 C926.93,751.01 929.34,754.09 931.65,754.19 C932.67,754.24 934.79,753.93 936.36,753.50 C938.99,752.79 939.16,752.91 938.52,754.94 C937.65,757.69 939.97,759.62 945.25,760.53 C947.32,760.89 948.79,761.53 948.53,761.95 C947.91,762.95 950.48,765.07 955.25,767.53 C957.82,768.85 959.00,770.13 959.00,771.60 C959.00,774.68 961.39,776.29 964.84,775.54 C968.07,774.82 971.00,776.88 971.00,779.87 C971.00,782.67 972.94,783.82 976.84,783.32 C979.23,783.01 981.20,783.39 982.50,784.39 C984.20,785.71 984.25,785.94 982.83,785.97 C981.92,785.99 981.02,785.59 980.83,785.08 C980.24,783.46 975.00,785.11 975.00,786.92 C975.00,790.63 979.63,792.35 981.99,789.51 C982.67,788.69 983.62,788.27 984.11,788.57 C984.60,788.87 985.90,789.29 987.01,789.50 C989.56,789.99 991.68,792.08 992.16,794.57 C992.36,795.63 994.10,797.26 996.01,798.20 L 999.50 799.90 L 995.89 799.95 C992.55,800.00 992.32,800.20 992.77,802.58 C993.33,805.51 995.18,806.57 997.75,805.46 C998.71,805.04 1000.15,804.57 1000.95,804.41 C1003.17,803.96 1010.95,806.27 1010.38,807.20 C1009.46,808.68 1011.06,811.91 1012.45,811.38 C1013.75,810.88 1015.32,812.44 1015.57,814.50 C1015.64,815.05 1015.76,816.06 1015.85,816.75 ZM 985.09 800.16 C986.33,802.49 987.26,802.48 989.42,800.08 C990.81,798.55 990.93,797.75 990.04,796.08 C989.43,794.94 988.10,794.00 987.08,794.00 C984.86,794.00 983.70,797.58 985.09,800.16 ZM 647.67 488.33 C648.52,489.18 651.95,489.08 654.37,488.12 C656.13,487.43 656.14,487.29 654.55,485.69 C652.18,483.32 647.00,483.42 647.00,485.83 C647.00,486.84 647.30,487.97 647.67,488.33 ZM 710.83 505.12 C709.92,505.70 709.88,505.97 710.69,505.98 C711.35,505.99 712.16,505.55 712.50,505.00 C712.84,504.45 714.33,503.99 715.81,503.98 C717.67,503.97 718.09,503.71 717.16,503.12 C716.43,502.66 715.98,501.88 716.16,501.39 C716.35,500.90 714.59,500.36 712.25,500.19 C708.84,499.95 708.00,500.21 708.00,501.54 C708.00,502.44 708.94,503.43 710.08,503.73 C711.67,504.15 711.85,504.48 710.83,505.12 ZM 260.00 471.83 C260.00,472.29 262.92,472.72 266.50,472.78 C273.12,472.90 274.23,472.26 271.43,469.95 C270.20,468.92 269.19,468.89 266.61,469.82 C264.82,470.47 262.60,471.00 261.68,471.00 C260.76,471.00 260.00,471.37 260.00,471.83 ZM 693.40 650.17 C691.95,651.62 692.04,651.71 694.48,651.25 C696.38,650.89 696.83,650.43 696.06,649.66 C695.29,648.89 694.53,649.04 693.40,650.17 ZM 754.00 517.83 C754.00,518.29 754.67,518.67 755.50,518.67 C756.33,518.67 757.00,518.29 757.00,517.83 C757.00,517.38 756.33,517.00 755.50,517.00 C754.67,517.00 754.00,517.38 754.00,517.83 ZM 0.00 649.08 L 3.75 648.08 C9.60,646.53 24.80,643.21 41.11,639.84 C19.79,644.27 1.14,648.53 0.33,649.34 C0.17,649.50 0.06,649.66 0.00,649.80 L 0.00 649.08 Z" fill="rgb(254,254,254)"/>
<path d="M 1017.50 686.40 C1006.41,678.42 977.18,659.50 960.84,649.74 C888.35,606.40 811.38,573.35 726.50,549.12 C643.68,525.47 554.69,511.67 455.00,507.01 C409.17,504.87 328.42,506.26 279.50,510.04 C243.00,512.86 169.02,521.18 142.50,525.45 C137.55,526.25 127.43,527.86 120.00,529.03 C96.54,532.75 57.37,539.90 32.00,545.11 C18.52,547.88 5.81,550.39 3.75,550.70 L 0.00 551.26 L 0.00 520.79 L 13.75 517.85 C54.93,509.06 68.56,506.39 100.00,501.00 C165.13,489.83 189.97,486.46 251.00,480.53 C284.49,477.27 316.03,475.22 351.01,474.02 C366.68,473.48 379.64,473.03 379.81,473.02 C379.98,473.01 379.87,472.59 379.56,472.10 C380.51,473.63 408.80,473.10 422.03,471.30 C436.88,469.28 476.83,468.81 479.10,470.63 C479.41,470.88 479.99,471.05 480.91,471.16 C480.02,471.06 479.45,470.91 479.19,470.70 C477.20,469.11 440.58,469.27 425.76,470.92 C418.75,471.71 413.17,472.50 413.36,472.69 C413.55,472.88 426.70,473.47 442.60,474.01 C531.55,477.01 589.52,484.15 673.00,502.39 C711.77,510.86 769.88,528.52 811.00,544.33 C832.66,552.65 882.24,574.83 898.00,583.25 C900.47,584.57 907.90,588.51 914.50,592.00 C942.21,606.67 981.99,631.32 1009.50,650.87 L 1023.50 660.82 L 1023.55 660.33 C1023.46,679.39 1023.36,690.00 1023.25,690.00 C1022.83,690.00 1020.25,688.38 1017.50,686.40 ZM 288.23 469.98 C284.43,470.15 281.03,470.57 279.18,471.17 C279.34,471.07 279.48,470.97 279.59,470.89 C280.20,470.40 283.89,470.08 288.23,469.98 ZM 0.00 517.77 L 0.00 514.74 L 4.45 515.24 C0.05,514.75 0.00,514.78 0.00,517.77 ZM 276.75 472.27 C275.93,472.64 275.21,472.90 274.84,472.97 C275.25,472.79 275.66,472.63 276.05,472.51 C276.28,472.44 276.51,472.36 276.75,472.27 ZM 270.77 475.34 C269.28,475.71 266.74,475.64 261.69,475.24 C266.62,475.63 269.26,475.69 270.77,475.34 ZM 1018.02 651.55 C1018.27,652.21 1018.63,652.80 1019.01,653.23 C1018.64,652.86 1018.30,652.30 1018.04,651.60 C1017.50,650.17 1016.63,649.00 1016.12,649.00 C1016.63,649.00 1017.49,650.15 1018.02,651.55 Z" fill="rgb(134,152,211)"/>
<path d="M 1015.85 816.75 C1015.76,816.06 1015.64,815.05 1015.57,814.50 C1015.32,812.44 1013.75,810.88 1012.45,811.38 C1011.06,811.91 1009.46,808.68 1010.38,807.20 C1010.95,806.27 1003.17,803.96 1000.95,804.41 C1000.15,804.57 998.71,805.04 997.75,805.46 C995.18,806.57 993.33,805.51 992.77,802.58 C992.32,800.20 992.55,800.00 995.89,799.95 L 999.50 799.90 L 996.01 798.20 C994.10,797.26 992.36,795.63 992.16,794.57 C991.68,792.08 989.56,789.99 987.01,789.50 C985.90,789.29 984.60,788.87 984.11,788.57 C983.62,788.27 982.67,788.69 981.99,789.51 C979.63,792.35 975.00,790.63 975.00,786.92 C975.00,785.11 980.24,783.46 980.83,785.08 C981.02,785.59 981.92,785.99 982.83,785.97 C984.25,785.94 984.20,785.71 982.50,784.39 C981.20,783.39 979.23,783.01 976.84,783.32 C972.94,783.82 971.00,782.67 971.00,779.87 C971.00,776.88 968.07,774.82 964.84,775.54 C961.39,776.29 959.00,774.68 959.00,771.60 C959.00,770.13 957.82,768.85 955.25,767.53 C950.48,765.07 947.91,762.95 948.53,761.95 C948.79,761.53 947.32,760.89 945.25,760.53 C939.97,759.62 937.65,757.69 938.52,754.94 C939.16,752.91 938.99,752.79 936.36,753.50 C934.79,753.93 932.67,754.24 931.65,754.19 C929.34,754.09 926.93,751.01 927.54,748.97 C928.03,747.31 922.64,743.49 921.13,744.42 C920.65,744.72 919.26,744.09 918.04,743.04 C916.64,741.82 914.77,741.25 912.94,741.48 C910.08,741.84 910.07,741.82 911.67,739.38 L 913.29 736.91 L 907.39 737.20 C901.66,737.49 901.49,737.43 901.19,734.82 C900.72,730.73 898.43,729.50 891.31,729.49 C887.79,729.49 884.60,729.04 884.21,728.49 C883.82,727.95 882.60,727.35 881.50,727.17 C878.10,726.60 877.64,725.36 879.01,720.46 C880.74,714.27 879.44,713.41 869.15,713.98 C866.91,714.11 865.05,713.46 863.49,711.99 L 861.17 709.81 L 860.05 711.91 C858.75,714.34 856.47,714.66 855.64,712.51 C855.26,711.51 855.88,710.82 857.54,710.40 C860.88,709.56 860.64,708.32 857.02,707.79 C854.80,707.46 854.30,707.66 855.04,708.54 C856.31,710.08 853.79,712.30 851.30,711.82 C850.11,711.59 849.43,710.46 849.29,708.49 C849.17,706.84 848.71,703.93 848.25,702.02 C847.34,698.16 846.65,698.01 836.38,699.44 C831.77,700.08 831.00,699.90 828.52,697.60 C826.39,695.63 825.35,695.28 823.95,696.03 C821.13,697.54 820.27,697.21 819.74,694.42 C819.41,692.69 819.75,691.65 820.78,691.25 C822.00,690.79 821.85,690.49 820.09,689.84 C818.76,689.34 817.04,689.44 815.86,690.07 C813.34,691.42 810.97,689.68 811.28,686.72 C811.54,684.24 807.38,683.03 799.81,683.38 C796.90,683.51 794.88,683.14 794.61,682.42 C794.29,681.60 792.89,681.47 790.06,681.99 C787.52,682.45 785.72,682.35 785.33,681.72 C784.95,681.11 784.15,681.44 783.34,682.54 C781.74,684.74 779.57,683.28 780.57,680.67 C781.02,679.50 781.91,679.19 783.60,679.62 C787.68,680.64 786.38,677.80 780.94,673.81 C774.52,669.10 766.71,667.17 761.01,668.88 C756.65,670.19 753.00,669.11 753.00,666.52 C753.00,664.27 751.42,663.90 748.43,665.45 C745.68,666.88 742.00,666.09 742.00,664.06 C742.00,663.59 740.33,662.80 738.29,662.32 C735.16,661.58 734.46,660.92 733.90,658.17 C733.02,653.85 730.59,652.18 726.10,652.82 C721.53,653.46 715.16,653.39 712.23,652.67 C709.63,652.03 706.81,649.52 707.69,648.64 C709.30,647.04 704.43,646.91 701.75,648.49 C698.98,650.13 698.66,650.14 697.82,648.64 C696.72,646.67 694.39,646.56 691.00,648.29 C687.01,650.34 683.55,649.88 683.18,647.25 C683.00,646.01 683.34,645.00 683.93,645.00 C685.63,645.00 685.17,641.85 683.25,640.39 C682.29,639.66 680.51,639.05 679.31,639.03 C678.10,639.01 676.81,638.51 676.44,637.90 C676.02,637.22 672.87,636.91 668.13,637.08 C663.93,637.23 659.71,636.99 658.74,636.56 C657.77,636.13 656.42,636.22 655.74,636.76 C654.04,638.10 647.85,638.12 646.24,636.78 C645.27,635.98 644.60,636.00 643.76,636.84 C641.45,639.15 637.00,637.06 637.00,633.67 C637.00,632.86 635.58,631.70 633.85,631.10 C629.98,629.75 629.72,629.74 630.51,631.01 C630.85,631.56 630.84,632.94 630.48,634.06 C629.94,635.76 629.13,636.06 625.67,635.80 C621.74,635.52 621.51,635.33 621.71,632.58 C621.83,630.98 622.44,629.35 623.06,628.96 C623.82,628.49 623.47,627.74 621.99,626.71 C620.78,625.86 620.02,624.77 620.31,624.30 C620.60,623.83 617.39,623.41 613.17,623.38 C606.71,623.32 599.50,622.58 599.50,621.97 C599.50,621.88 593.88,621.65 587.00,621.45 C580.12,621.26 572.53,620.80 570.12,620.43 C566.70,619.91 565.91,620.05 566.52,621.04 C567.11,621.99 566.71,622.15 564.91,621.67 C563.58,621.32 561.30,621.02 559.83,621.01 C558.36,621.01 555.78,619.85 554.10,618.43 C551.43,616.19 550.38,615.93 545.58,616.34 C542.57,616.60 539.67,617.09 539.14,617.42 C538.60,617.75 536.89,617.51 535.33,616.89 C533.78,616.27 530.09,615.84 527.14,615.94 C518.69,616.21 516.01,615.30 515.33,611.91 C514.86,609.56 514.23,609.00 512.04,609.00 C510.55,609.00 509.00,608.66 508.58,608.25 C508.17,607.84 502.68,607.49 496.37,607.49 C487.50,607.48 484.71,607.15 484.03,606.04 C483.28,604.84 482.11,604.79 476.82,605.75 C473.34,606.37 469.04,606.93 467.25,606.99 C465.46,607.04 462.99,607.13 461.75,607.18 C458.25,607.34 422.15,607.23 416.00,607.04 C412.41,606.93 410.23,606.38 409.71,605.44 C408.50,603.29 380.80,603.35 378.64,605.50 C376.96,607.18 372.00,607.55 372.00,606.00 C372.00,604.69 367.27,604.70 366.83,606.01 C366.40,607.29 329.75,607.45 325.50,606.20 C323.69,605.67 321.37,605.70 319.65,606.29 C318.08,606.83 314.17,606.99 310.95,606.65 C307.12,606.25 304.86,606.42 304.41,607.15 C303.95,607.88 301.69,608.03 297.61,607.58 C294.25,607.21 290.83,606.97 290.00,607.04 C289.17,607.12 285.12,607.29 281.00,607.43 C276.88,607.57 272.71,608.02 271.75,608.45 C270.78,608.87 268.89,608.94 267.54,608.60 C265.72,608.14 264.81,608.49 264.03,609.94 C263.46,611.01 261.61,612.71 259.93,613.70 C257.65,615.04 256.97,616.07 257.29,617.71 C257.65,619.64 257.17,620.00 253.43,620.56 C251.08,620.91 247.30,620.89 245.02,620.50 C241.28,619.87 240.91,619.55 241.19,617.17 C241.63,613.46 238.44,613.05 235.33,616.40 C232.62,619.32 230.50,619.73 229.64,617.50 C228.83,615.39 223.98,615.67 221.00,618.00 C219.62,619.08 217.82,619.97 217.00,619.98 C216.18,620.00 214.22,620.86 212.66,621.89 C209.65,623.87 206.82,623.69 204.91,621.39 C203.97,620.26 204.35,619.88 206.88,619.37 C210.20,618.71 211.19,617.00 208.24,617.00 C207.28,617.00 204.91,617.48 202.99,618.06 C201.07,618.64 196.83,619.30 193.57,619.54 C190.31,619.77 187.37,620.40 187.03,620.95 C186.69,621.51 178.87,622.13 168.96,622.38 C159.36,622.63 148.95,623.15 145.84,623.54 C140.33,624.24 140.13,624.37 138.59,628.41 C137.71,630.70 137.00,633.11 137.00,633.78 C137.00,634.62 134.83,635.00 130.00,635.00 C124.59,635.00 123.00,635.33 123.00,636.43 C123.00,638.17 119.92,639.29 117.59,638.40 C114.48,637.20 116.22,634.50 120.12,634.46 C123.48,634.43 128.99,631.05 125.82,630.96 C125.09,630.94 121.80,630.77 118.50,630.58 C113.09,630.27 112.30,630.49 110.44,632.75 C108.48,635.14 108.19,635.20 104.69,633.93 C101.82,632.89 100.73,632.87 99.80,633.80 C98.87,634.73 98.92,635.01 100.05,635.06 C100.85,635.10 100.38,635.63 99.00,636.24 C97.62,636.85 91.55,637.49 85.50,637.67 C60.85,638.41 56.76,639.14 55.27,643.09 C54.34,645.56 53.63,646.00 50.59,646.00 C46.51,646.00 45.77,647.65 49.43,648.57 C51.86,649.18 51.98,651.60 49.66,653.16 C48.25,654.10 46.00,653.03 46.00,651.41 C46.00,650.66 44.76,649.74 43.25,649.38 C41.74,649.02 40.07,648.48 39.55,648.18 C37.81,647.18 33.00,647.00 33.00,647.93 C33.00,648.42 33.56,649.04 34.25,649.30 C34.94,649.55 34.15,650.30 32.50,650.96 C30.25,651.85 29.04,651.87 27.68,651.02 C26.23,650.12 25.12,650.32 22.30,651.98 C19.30,653.75 18.25,653.91 15.46,652.99 C13.65,652.39 9.66,651.77 6.59,651.62 C1.05,651.34 -0.95,650.61 0.33,649.34 C1.60,648.06 47.54,638.15 78.00,632.58 C166.80,616.33 220.84,609.46 308.00,603.32 C339.09,601.14 438.21,600.80 467.50,602.79 C570.13,609.74 644.22,622.82 727.50,648.70 C830.49,680.70 926.00,731.57 1010.25,799.32 C1022.76,809.38 1024.00,810.66 1024.00,813.58 C1024.00,816.97 1022.69,818.00 1018.42,818.00 C1017.09,818.00 1015.93,817.44 1015.85,816.75 ZM 985.09 800.16 C983.70,797.58 984.86,794.00 987.08,794.00 C988.10,794.00 989.43,794.94 990.04,796.08 C990.93,797.75 990.81,798.55 989.42,800.08 C987.26,802.48 986.33,802.49 985.09,800.16 ZM 1009.50 650.87 C981.99,631.32 942.21,606.67 914.50,592.00 C907.90,588.51 900.47,584.57 898.00,583.25 C882.24,574.83 832.66,552.65 811.00,544.33 C769.88,528.52 711.77,510.86 673.00,502.39 C589.52,484.15 531.55,477.01 442.60,474.01 C426.70,473.47 413.55,472.88 413.36,472.69 C413.17,472.50 418.75,471.71 425.76,470.92 C440.58,469.27 477.20,469.11 479.19,470.70 C480.08,471.41 484.41,471.46 492.76,470.84 C500.97,470.24 505.66,470.28 506.94,470.97 C509.39,472.28 521.12,472.23 527.00,470.88 C536.76,468.65 538.03,468.65 540.08,470.86 C542.03,472.94 542.02,472.96 539.50,473.59 C538.11,473.94 536.08,473.99 534.98,473.71 C532.66,473.10 531.30,474.70 532.84,476.24 C533.56,476.96 534.34,476.99 535.21,476.32 C537.98,474.18 557.00,472.37 557.00,474.25 C557.00,474.66 557.70,475.00 558.56,475.00 C559.42,475.00 559.90,474.65 559.63,474.21 C559.36,473.78 560.39,472.87 561.92,472.20 C565.61,470.56 575.49,471.88 575.53,474.02 C575.58,476.88 577.18,478.21 579.92,477.67 C583.12,477.03 585.50,478.26 584.76,480.19 C583.57,483.29 586.30,484.50 595.00,484.71 C610.99,485.11 626.50,485.99 633.37,486.88 C639.14,487.62 640.60,488.21 642.48,490.58 C644.63,493.28 644.90,493.35 648.73,492.20 C654.57,490.45 660.11,490.74 662.99,492.95 C664.35,494.00 665.14,495.19 664.74,495.60 C664.33,496.00 666.36,497.17 669.25,498.21 C672.98,499.54 677.78,500.15 685.84,500.32 C696.32,500.54 697.39,500.75 699.93,503.03 C704.48,507.12 706.56,507.99 709.71,507.08 C711.30,506.63 714.94,506.48 717.79,506.75 C721.09,507.07 723.52,506.81 724.45,506.04 C725.25,505.37 726.38,505.12 726.96,505.47 C728.75,506.58 728.10,508.00 725.75,508.08 C724.51,508.12 724.08,508.39 724.79,508.68 C725.78,509.07 725.81,509.52 724.92,510.60 C724.02,511.68 724.06,512.00 725.13,512.01 C725.88,512.01 727.85,512.74 729.50,513.64 C731.44,514.69 734.62,515.21 738.50,515.12 C741.80,515.04 746.41,515.49 748.75,516.12 C752.64,517.16 753.50,518.00 753.09,520.33 C753.01,520.78 753.88,520.85 755.02,520.49 C756.23,520.11 758.06,520.46 759.41,521.35 C761.72,522.86 764.33,523.01 765.64,521.70 C766.02,521.31 767.84,521.00 769.69,521.00 C773.02,521.00 774.58,522.89 775.46,528.00 C775.65,529.14 777.23,529.51 782.11,529.55 C785.62,529.58 789.17,529.88 790.00,530.22 C790.83,530.56 792.85,531.18 794.50,531.61 C797.37,532.35 798.42,532.52 802.18,532.85 C803.11,532.93 804.13,533.83 804.45,534.83 C804.77,535.84 805.58,536.72 806.26,536.78 C806.94,536.84 809.77,537.06 812.55,537.27 C818.39,537.69 819.99,538.45 820.02,540.81 C820.05,544.17 821.74,545.41 825.97,545.16 C828.89,544.98 830.97,545.56 833.21,547.15 C836.28,549.34 841.88,549.82 847.50,548.38 C849.05,547.98 849.18,548.09 848.06,548.86 C846.03,550.26 848.21,552.67 852.32,553.55 C856.44,554.43 857.90,555.66 857.35,557.79 C856.99,559.17 857.70,559.55 861.12,559.79 C863.46,559.95 865.83,560.75 866.45,561.61 C867.07,562.45 868.01,563.06 868.54,562.95 C871.32,562.41 873.00,563.17 873.00,564.98 C873.00,566.80 873.50,566.92 878.75,566.44 C886.07,565.76 889.38,567.32 889.80,571.66 C890.06,574.23 890.67,574.91 893.30,575.56 C895.06,575.99 898.30,576.38 900.50,576.42 C904.29,576.50 904.50,576.67 904.50,579.59 C904.50,582.67 904.51,582.67 908.47,581.78 C911.63,581.07 912.68,581.20 913.57,582.43 C914.19,583.28 914.92,583.75 915.19,583.48 C915.98,582.68 919.47,587.03 919.49,588.84 C919.50,590.01 920.39,590.51 922.50,590.52 C924.15,590.53 926.48,591.10 927.68,591.77 C928.89,592.45 930.54,593.00 931.36,593.00 C932.18,593.00 933.47,593.62 934.23,594.37 C934.98,595.12 936.98,596.46 938.68,597.33 C941.82,598.96 943.45,601.46 942.44,603.10 C941.87,604.03 943.35,604.87 946.67,605.50 C947.68,605.69 948.50,605.93 948.50,606.04 C948.50,606.14 949.93,606.33 951.68,606.47 C955.19,606.73 958.00,608.97 958.00,611.50 C958.00,612.59 958.76,613.08 960.25,612.96 C965.48,612.54 966.77,613.04 967.99,615.97 C968.66,617.60 970.18,619.22 971.36,619.56 C976.73,621.14 981.16,623.60 982.62,625.82 C984.00,627.93 984.77,628.17 988.58,627.74 C994.15,627.12 996.55,628.67 995.63,632.32 C995.06,634.61 995.33,635.03 997.74,635.56 C1002.65,636.64 1003.03,636.91 1003.60,639.73 C1004.11,642.30 1004.51,642.51 1009.16,642.57 C1014.42,642.65 1016.37,644.07 1015.61,647.25 C1015.38,648.21 1015.61,649.00 1016.12,649.00 C1016.63,649.00 1017.49,650.17 1018.04,651.60 C1018.62,653.14 1019.57,653.99 1020.35,653.69 C1022.65,652.81 1024.16,654.59 1023.82,657.77 L 1023.50 660.82 L 1009.50 650.87 ZM 693.40 650.17 C694.53,649.04 695.29,648.89 696.06,649.66 C696.83,650.43 696.38,650.89 694.48,651.25 C692.04,651.71 691.95,651.62 693.40,650.17 ZM -0.00 517.77 C-0.00,514.78 0.05,514.75 4.45,515.24 C6.89,515.52 11.51,515.22 14.70,514.58 C19.50,513.62 20.56,513.04 20.82,511.20 C21.00,509.97 21.56,509.23 22.07,509.54 C22.58,509.86 23.00,509.47 23.00,508.68 C23.00,506.21 29.92,505.12 35.90,506.65 C41.10,507.98 48.88,507.72 49.95,506.18 C51.30,504.23 55.68,502.00 58.16,502.00 C59.66,502.00 61.18,501.52 61.54,500.94 C61.91,500.34 64.05,500.08 66.50,500.33 C68.88,500.58 71.26,500.34 71.80,499.80 C72.43,499.17 75.01,499.17 79.12,499.79 C83.96,500.52 86.38,500.42 89.36,499.37 C91.50,498.62 94.06,498.00 95.06,498.00 C96.05,498.00 97.14,497.15 97.47,496.11 C98.08,494.17 100.75,493.04 104.75,493.01 C106.33,493.00 107.00,492.40 107.00,491.00 C107.00,489.89 106.33,489.00 105.50,489.00 C104.68,489.00 104.00,488.60 104.00,488.10 C104.00,487.61 105.54,487.20 107.43,487.20 C109.31,487.20 112.67,486.89 114.89,486.52 C118.63,485.89 118.97,486.02 119.57,488.42 C119.95,489.92 120.92,491.00 121.91,491.00 C122.84,491.00 124.14,491.54 124.79,492.19 C125.72,493.12 126.68,492.69 129.05,490.26 C132.78,486.44 138.08,485.51 155.25,485.67 C161.71,485.73 167.00,485.37 167.00,484.88 C167.00,484.10 185.80,484.22 188.50,485.02 C189.05,485.18 190.18,485.06 191.00,484.73 C196.11,482.75 200.14,482.00 202.51,482.59 C204.99,483.21 205.13,483.10 204.13,481.24 C202.77,478.70 204.97,476.50 208.06,477.30 C209.32,477.63 210.33,477.29 210.67,476.43 C210.96,475.65 211.56,475.23 211.99,475.49 C212.42,475.76 213.01,475.06 213.30,473.94 C213.74,472.27 214.55,471.95 217.82,472.14 C221.79,472.38 222.53,473.72 220.50,477.00 C220.16,477.55 220.77,478.00 221.86,478.00 C224.44,478.00 227.09,476.96 226.60,476.15 C226.38,475.79 228.19,475.44 230.60,475.38 C233.26,475.30 235.01,475.70 235.02,476.38 C235.03,477.10 235.29,477.14 235.77,476.50 C237.04,474.76 248.66,474.19 261.69,475.24 C269.20,475.84 271.16,475.70 272.37,474.49 C273.19,473.67 274.23,473.00 274.68,472.99 C275.13,472.99 276.79,472.32 278.36,471.50 C281.36,469.93 294.11,469.35 301.50,470.45 C307.27,471.31 316.06,471.04 318.11,469.94 C320.45,468.69 325.72,468.74 326.52,470.02 C326.90,470.64 329.04,470.80 331.93,470.42 C335.78,469.90 336.82,470.09 337.32,471.39 C338.21,473.72 344.16,473.46 347.04,470.97 C348.85,469.40 350.31,469.05 353.44,469.44 C355.67,469.71 362.34,470.22 368.25,470.57 C374.16,470.91 379.25,471.60 379.56,472.10 C379.87,472.59 379.98,473.01 379.81,473.02 C379.64,473.03 366.68,473.48 351.01,474.02 C316.03,475.22 284.49,477.27 251.00,480.53 C189.97,486.46 165.13,489.83 100.00,501.00 C68.56,506.39 54.93,509.06 13.75,517.85 L 0.00 520.79 L -0.00 517.77 ZM 754.00 517.83 C754.00,517.38 754.67,517.00 755.50,517.00 C756.33,517.00 757.00,517.38 757.00,517.83 C757.00,518.29 756.33,518.67 755.50,518.67 C754.67,518.67 754.00,518.29 754.00,517.83 ZM 710.83 505.12 C711.85,504.48 711.67,504.15 710.08,503.73 C708.94,503.43 708.00,502.44 708.00,501.54 C708.00,500.21 708.84,499.95 712.25,500.19 C714.59,500.36 716.35,500.90 716.16,501.39 C715.98,501.88 716.43,502.66 717.16,503.12 C718.09,503.71 717.67,503.97 715.81,503.98 C714.33,503.99 712.84,504.45 712.50,505.00 C712.16,505.55 711.35,505.99 710.69,505.98 C709.88,505.97 709.92,505.70 710.83,505.12 ZM 647.67 488.33 C647.30,487.97 647.00,486.84 647.00,485.83 C647.00,483.42 652.18,483.32 654.55,485.69 C656.14,487.29 656.13,487.43 654.37,488.12 C651.95,489.08 648.52,489.18 647.67,488.33 ZM 260.00 471.83 C260.00,471.37 260.76,471.00 261.68,471.00 C262.60,471.00 264.82,470.47 266.61,469.82 C269.19,468.89 270.20,468.92 271.43,469.95 C274.23,472.26 273.12,472.90 266.50,472.78 C262.92,472.72 260.00,472.29 260.00,471.83 Z" fill="rgb(253,253,252)"/>
</g>
</svg>