<svg width="1440" height="2090" viewBox="0 0 1440 2090" fill="none" xmlns="http://www.w3.org/2000/svg">
<g filter="url(#filter0_i_121_161)">
<path d="M-353.158 66.8326C-943.384 174.67 -1439.44 402.741 -1618.78 672.876C-1670.31 750.605 -1697.91 830.696 -1757.55 907.736C-1823.93 993.14 -1929.27 1072.89 -2002.07 1157.5C-2222.85 1411.9 -2112.06 1702.54 -1762.1 1907.84C-1498.4 2062.46 -1108.47 2124.25 -663.751 2071.51C-444.654 2045.59 -256.122 1987.54 -43.752 1957.13C249.135 1915.22 580.105 1919.2 879.323 1915.36C1213.56 1911.04 1913.97 1851.31 2249.39 1837.09C2763.65 1815.15 2739.02 1284.43 2626.26 1150.67C2513.5 1016.9 2337.82 896.52 2211.31 765.462C2065.12 614.038 1983.12 447.559 1778.66 310.991C1465.59 101.86 879.422 -12.0283 294.34 1.00863C73.0667 6.27258 -145.239 28.4599 -352.96 66.8326H-353.158Z" fill="url(#paint0_linear_121_161)"/>
</g>
<defs>
<filter id="filter0_i_121_161" x="-2116" y="0" width="4809" height="2090" filterUnits="userSpaceOnUse" color-interpolation-filters="sRGB">
<feFlood flood-opacity="0" result="BackgroundImageFix"/>
<feBlend mode="normal" in="SourceGraphic" in2="BackgroundImageFix" result="shape"/>
<feColorMatrix in="SourceAlpha" type="matrix" values="0 0 0 0 0 0 0 0 0 0 0 0 0 0 0 0 0 0 127 0" result="hardAlpha"/>
<feOffset dy="39"/>
<feComposite in2="hardAlpha" operator="arithmetic" k2="-1" k3="1"/>
<feColorMatrix type="matrix" values="0 0 0 0 0.858824 0 0 0 0 0.894118 0 0 0 0 0.933333 0 0 0 0.44 0"/>
<feBlend mode="normal" in2="shape" result="effect1_innerShadow_121_161"/>
</filter>
<linearGradient id="paint0_linear_121_161" x1="288.5" y1="0" x2="288.5" y2="2090" gradientUnits="userSpaceOnUse">
<stop stop-color="#435FBE"/>
<stop offset="1" stop-color="#1F2C58"/>
</linearGradient>
</defs>
</svg>
